<svg width="120" height="120" viewBox="0 0 120 120" fill="none" xmlns="http://www.w3.org/2000/svg">
  <!-- Outer orbital ring -->
  <circle cx="60" cy="60" r="55" stroke="#71717a" stroke-width="1.5" fill="none" stroke-dasharray="8 4" opacity="0.3"/>
  
  <!-- Inner circuit ring -->
  <circle cx="60" cy="60" r="35" stroke="#3b82f6" stroke-width="1" fill="none" stroke-dasharray="4 2" opacity="0.5"/>
  
  <!-- Central star - Sirius -->
  <g fill="#3b82f6" stroke="#3b82f6">
    <!-- Main star rays -->
    <path d="M60 25 L60 95 M25 60 L95 60 M35.8 35.8 L84.2 84.2 M84.2 35.8 L35.8 84.2" stroke-width="2" stroke-linecap="round" opacity="0.6"/>
    
    <!-- Central hexagon core -->
    <path d="M60 40 L71.96 50 L71.96 70 L60 80 L48.04 70 L48.04 50 Z"/>
    
    <!-- Inner core circle -->
    <circle cx="60" cy="60" r="8" fill="#ffffff"/>
    
    <!-- Core dot -->
    <circle cx="60" cy="60" r="3" fill="#3b82f6"/>
  </g>
  
  <!-- Orbiting nodes representing distributed AI -->
  <g fill="#3b82f6" opacity="0.7">
    <!-- Node 1 -->
    <circle cx="60" cy="15" r="3">
      <animateTransform attributeName="transform" type="rotate" values="0 60 60;360 60 60" dur="20s" repeatCount="indefinite"/>
    </circle>
    
    <!-- Node 2 -->
    <circle cx="105" cy="60" r="2.5">
      <animateTransform attributeName="transform" type="rotate" values="120 60 60;480 60 60" dur="20s" repeatCount="indefinite"/>
    </circle>
    
    <!-- Node 3 -->
    <circle cx="60" cy="105" r="2">
      <animateTransform attributeName="transform" type="rotate" values="240 60 60;600 60 60" dur="20s" repeatCount="indefinite"/>
    </circle>
    
    <!-- Node 4 -->
    <circle cx="15" cy="60" r="2.5">
      <animateTransform attributeName="transform" type="rotate" values="90 60 60;450 60 60" dur="20s" repeatCount="indefinite"/>
    </circle>
  </g>
  
  <!-- Connection lines - representing universal support -->
  <g stroke="#71717a" stroke-width="1" fill="none" opacity="0.3">
    <path d="M60 25 Q45 40 60 60 Q75 40 60 25"/>
    <path d="M95 60 Q80 45 60 60 Q80 75 95 60"/>
    <path d="M60 95 Q75 80 60 60 Q45 80 60 95"/>
    <path d="M25 60 Q40 75 60 60 Q40 45 25 60"/>
  </g>
</svg>